<svg width="195" height="44" viewBox="0 0 195 44" fill="none" xmlns="http://www.w3.org/2000/svg">
<path fill-rule="evenodd" clip-rule="evenodd" d="M194.902 29.9739C194.874 30.2094 194.764 30.4265 194.592 30.5846C194.421 30.7428 194.199 30.8312 193.969 30.8336H181.409C181.513 32.0432 182.055 33.1681 182.928 33.9835C183.801 34.7989 184.941 35.2448 186.119 35.2322C187.489 35.2161 188.822 34.7757 189.946 33.9683C190.437 33.6649 190.877 33.5637 191.221 33.9683L193.233 36.3447C193.576 36.6987 193.674 37.2547 193.183 37.6592C191.565 39.2265 189.062 40.44 185.874 40.44C179.985 40.44 175.815 35.6368 175.815 29.8223C175.815 24.1092 179.985 19.2048 185.825 19.2048C190.877 19.2048 195 23.1485 195 28.609C194.992 29.0655 194.959 29.5212 194.902 29.9739ZM185.678 23.8567C184.744 23.8573 183.843 24.2057 183.139 24.8376C182.436 25.4695 181.978 26.3423 181.849 27.2949H189.259C189.111 25.4235 187.542 23.8553 185.678 23.8553V23.8567ZM172.429 39.935H170.516C170.074 39.935 169.73 39.5306 169.583 38.9742L169.092 37.407C169.092 37.407 166.786 40.4405 162.664 40.4405C157.317 40.4405 153.244 35.6373 153.244 29.8228C153.244 23.9072 157.121 19.2052 162.959 19.2052C164.458 19.2197 165.94 19.5286 167.326 20.1153V5.50341C167.334 5.25125 167.435 5.01175 167.608 4.83341C167.781 4.65508 168.014 4.55123 168.259 4.54289H172.429C172.673 4.55132 172.906 4.65524 173.079 4.8336C173.252 5.01196 173.352 5.25141 173.36 5.50341V38.9736C173.352 39.2256 173.252 39.4651 173.079 39.6436C172.906 39.822 172.673 39.926 172.429 39.9344V39.935ZM167.522 25.8286C167.522 25.8286 166.149 24.6657 163.695 24.6657C160.948 24.6657 158.936 26.9915 158.936 29.8228C158.936 32.654 160.8 34.98 163.401 34.98C166.002 34.98 167.178 32.907 167.522 31.6935V25.828V25.8286ZM149.859 39.935H145.786C145.542 39.9265 145.309 39.8226 145.136 39.6442C144.963 39.4658 144.862 39.2263 144.854 38.9742V20.6709C144.854 20.5447 144.878 20.4197 144.925 20.3031C144.972 20.1865 145.04 20.0806 145.127 19.9913C145.214 19.9021 145.316 19.8313 145.43 19.7831C145.543 19.7348 145.664 19.71 145.786 19.7101H149.859C149.982 19.71 150.103 19.7348 150.216 19.7831C150.329 19.8314 150.432 19.9021 150.518 19.9914C150.605 20.0806 150.673 20.1866 150.72 20.3032C150.767 20.4198 150.791 20.5448 150.79 20.6709V38.9736C150.783 39.2256 150.682 39.4651 150.509 39.6436C150.336 39.822 150.104 39.926 149.859 39.9344V39.935ZM134.206 39.7326C134.151 39.9323 134.036 40.1088 133.877 40.2362C133.718 40.3636 133.524 40.4352 133.322 40.4405H132.537C132.359 40.4522 132.181 40.4045 132.031 40.3044C131.881 40.2042 131.766 40.057 131.703 39.8844L122.921 16.9798H122.676L113.991 39.8838C113.844 40.1872 113.648 40.4399 113.157 40.4399H112.372C112.171 40.4346 111.976 40.363 111.818 40.2356C111.659 40.1082 111.543 39.9317 111.489 39.732L102.216 5.75546C102.019 5.04761 102.412 4.54213 103.099 4.54213H107.613C107.811 4.55703 108.001 4.63221 108.158 4.75819C108.316 4.88417 108.433 5.0553 108.496 5.24998L113.599 25.4237H113.795L121.597 4.59272C121.695 4.28931 121.94 4.03664 122.431 4.03664H123.314C123.805 4.03664 124.05 4.28931 124.148 4.59272L131.998 25.4237H132.195L137.198 5.24998C137.261 5.05531 137.379 4.88419 137.536 4.75822C137.693 4.63224 137.883 4.55705 138.082 4.54213H142.596C143.283 4.54213 143.675 5.04807 143.479 5.75562L134.206 39.7326ZM94.0704 40.4405C88.5262 40.4405 84.0122 35.5867 84.0122 29.7723C84.0122 24.059 88.5262 19.2052 94.0704 19.2052C99.6146 19.2052 104.129 24.059 104.129 29.7723C104.129 35.5861 99.6146 40.4399 94.0704 40.4399V40.4405ZM94.0704 24.6657C91.421 24.6657 89.3602 26.9409 89.3602 29.7723C89.3602 32.6547 91.421 34.98 94.0704 34.98C96.6708 34.98 98.7806 32.6542 98.7806 29.7723C98.7804 26.9403 96.6708 24.6651 94.0704 24.6651V24.6657ZM80.6759 39.935H76.5547C76.31 39.9265 76.0776 39.8226 75.9045 39.6442C75.7315 39.4658 75.6306 39.2263 75.6225 38.9742V5.50341C75.6307 5.25133 75.7315 5.01187 75.9046 4.83354C76.0777 4.6552 76.3101 4.55131 76.5547 4.54289H80.6759C80.9205 4.55131 81.1529 4.6552 81.326 4.83354C81.499 5.01187 81.5999 5.25133 81.6081 5.50341V38.9736C81.6 39.2257 81.4991 39.4652 81.326 39.6436C81.1529 39.822 80.9205 39.9259 80.6759 39.9344V39.935ZM73.0205 10.6088H58.4974V20.1144H70.6167C70.8613 20.1228 71.0937 20.2267 71.2667 20.405C71.4398 20.5834 71.5407 20.8228 71.5489 21.0749V25.2213C71.5407 25.4734 71.4398 25.7129 71.2667 25.8912C71.0937 26.0695 70.8613 26.1734 70.6167 26.1818H58.4974V38.9736C58.4893 39.2257 58.3885 39.4651 58.2154 39.6435C58.0424 39.8219 57.81 39.9259 57.5653 39.9344H53.0514C52.9289 39.9345 52.8077 39.9097 52.6945 39.8614C52.5814 39.8131 52.4786 39.7424 52.392 39.6531C52.3054 39.5639 52.2367 39.4579 52.1899 39.3413C52.1431 39.2247 52.1191 39.0998 52.1192 38.9736V5.50341C52.1191 5.37724 52.1431 5.25229 52.19 5.13571C52.2368 5.01912 52.3055 4.9132 52.392 4.82399C52.4786 4.73478 52.5814 4.66403 52.6946 4.6158C52.8077 4.56757 52.929 4.54279 53.0514 4.54289H73.0205C73.1429 4.54279 73.2642 4.56757 73.3773 4.6158C73.4904 4.66403 73.5932 4.73478 73.6798 4.82399C73.7664 4.9132 73.8351 5.01912 73.8819 5.13571C73.9287 5.25229 73.9528 5.37724 73.9527 5.50341V9.6486C73.9527 9.77474 73.9286 9.89965 73.8818 10.0162C73.8349 10.1327 73.7663 10.2386 73.6797 10.3278C73.5931 10.417 73.4903 10.4877 73.3772 10.5359C73.2641 10.5841 73.1429 10.6089 73.0205 10.6088ZM21.3497 43.9995C18.0491 43.997 14.794 43.2065 11.8397 41.69C8.88531 40.1735 6.31207 37.9724 4.32176 35.2591C2.33145 32.5459 0.9782 29.3944 0.368142 26.0518C-0.241917 22.7092 -0.0921901 19.2664 0.805578 15.9934C1.48445 15.5296 2.32223 15.1258 3.17503 15.1364C4.0494 15.1471 5.06094 16.6625 5.94067 20.1841C6.83989 23.7835 7.37921 28.8061 9.91633 28.8061C12.4341 28.8061 13.8935 23.5972 15.1602 20.871C16.37 18.2669 17.2318 18.6416 17.8233 20.8394C18.0862 21.8171 19.5267 28.5089 21.502 32.2154C23.9589 36.8251 26.5203 36.7365 28.8578 34.3276C30.8059 32.3201 32.0593 27.1994 33.7844 20.507C34.8162 16.5044 37.4053 14.3382 39.0484 13.8093C39.6943 13.6197 40.358 13.5012 41.0282 13.4557C42.3932 16.8009 42.9346 20.4419 42.604 24.0548C42.2734 27.6677 41.0811 31.1403 39.1333 34.1635C37.1855 37.1867 34.5425 39.6668 31.4397 41.383C28.3369 43.0991 24.8704 43.9981 21.3489 44L21.3497 43.9995ZM34.5761 6.84186C31.8025 8.2197 30.4685 10.205 29.7033 11.8859C26.5359 18.8465 28.4315 27.8324 26.0085 28.2208C23.7376 28.5855 23.067 12.302 17.0107 12.3019C13.285 12.3019 11.6439 19.7959 10.5443 22.6616C10.1313 23.7377 9.36154 23.6912 9.00283 22.3994C7.90529 18.4469 6.46541 14.9371 4.65507 13.55C3.71197 12.8274 2.58467 13.0807 1.61538 13.5937C2.95036 10.2672 5.05697 7.32909 7.75047 5.03696C10.444 2.74484 13.6421 1.16874 17.0643 0.446902C20.4866 -0.274938 24.0284 -0.120472 27.3793 0.896753C30.7301 1.91398 33.7875 3.76289 36.2835 6.28134C35.6912 6.38415 35.1161 6.57303 34.5753 6.84232L34.5761 6.84186Z" fill="white"/>
</svg>
